<svg width="114.44375px" height="192.79999999999998px" xmlns="http://www.w3.org/2000/svg" viewBox="192.778125 -21.39999999999999 114.44375 192.79999999999998" style="background:#444" preserveAspectRatio="xMidYMid"><defs><filter id="editing-crystal" x="-100%" y="-100%" width="300%" height="300%"><feMorphology operator="dilate" radius="2" in="SourceGraphic" result="border"></feMorphology><feFlood flood-color="#fff" result="black"></feFlood><feMorphology operator="dilate" radius="2" in="SourceGraphic" result="erode"></feMorphology><feGaussianBlur in="erode" stdDeviation="4" result="blur"></feGaussianBlur><feOffset in="blur" dx="2" dy="2" result="offset"></feOffset><feComposite operator="atop" in="offset" in2="black" result="merge"></feComposite><feComposite operator="in" in="merge" in2="SourceGraphic" result="inner-shadow"></feComposite><feGaussianBlur in="SourceGraphic" stdDeviation="2.5" result="shadow1"></feGaussianBlur><feOffset in="shadow1" dx="0" dy="5" result="shadow"></feOffset><feSpecularLighting in="SourceGraphic" result="specular" surfaceScale="1.5" specularConstant="100" specularExponent="10" lighting-color="#fff"><fePointLight x="250" y="-300" z="-400"></fePointLight></feSpecularLighting><feGaussianBlur in="specular" stdDeviation="1" result="specular2"></feGaussianBlur><feComposite operator="in" in="specular2" in2="SourceAlpha" result="specular3"></feComposite><feMerge result="merge"><feMergeNode in="border"></feMergeNode><feMergeNode in="inner-shadow"></feMergeNode><feMergeNode in="specular3"></feMergeNode></feMerge><feComponentTransfer in="merge" result="final"><feFuncA type="linear" slope="0.9" intercept="0"></feFuncA></feComponentTransfer><feMerge><feMergeNode in="shadow"></feMergeNode><feMergeNode in="final"></feMergeNode></feMerge></filter></defs><g filter="url(#editing-crystal)"><g transform="translate(216.92001175880432, 112.05999755859375)"><path d="M0.76-0.55L0.76-0.55L14.50-71.94L14.50-71.94Q27.36-73.03 35.64-73.03L35.64-73.03L35.64-73.03Q43.93-73.03 49.27-72.32L49.27-72.32L49.27-72.32Q54.61-71.61 58.21-69.76L58.21-69.76L58.21-69.76Q65.40-66.27 65.40-56.68L65.40-56.68L65.40-56.68Q65.40-51.12 60.60-46.43L60.60-46.43L60.60-46.43Q56.13-42.18 51.23-41.20L51.23-41.20L51.23-41.20Q56.46-40.33 60.17-36.41L60.17-36.41L60.17-36.41Q64.09-32.26 64.09-25.83L64.09-25.83L64.09-25.83Q64.09-13.41 54.83-6.16L54.83-6.16L54.83-6.16Q45.56 1.09 27.36 1.09L27.36 1.09L27.36 1.09Q14.82 1.09 0.76-0.55ZM30.41-35.10L24.96-6.87L24.96-6.87Q25.94-6.76 26.16-6.76L26.16-6.76L27.14-6.76L27.14-6.76Q36.08-6.76 39.89-12.64L39.89-12.64L39.89-12.64Q42.73-17.22 42.73-25.61L42.73-25.61L42.73-25.61Q42.73-30.08 39.84-32.48L39.84-32.48L39.84-32.48Q36.95-34.88 30.41-35.10L30.41-35.10ZM46.98-56.57L46.98-56.57L46.98-56.57Q46.98-65.62 38.26-65.62L38.26-65.62L37.28-65.62L37.28-65.62Q36.84-65.62 36.19-65.51L36.19-65.51L31.83-42.51L32.92-42.51L32.92-42.51Q46.98-42.84 46.98-56.57Z" fill="#000000" stroke="#88e0eb" stroke-width="1.5"></path></g></g><style>text {
  font-size: 64px;
  font-family: Arial Black;
  dominant-baseline: central;
  text-anchor: middle;
}</style></svg>